<?xml version="1.0" encoding="utf-8"?>
<!-- Generator: Adobe Illustrator 24.1.2, SVG Export Plug-In . SVG Version: 6.00 Build 0)  -->
<svg version="1.1" id="Слой_1" xmlns="http://www.w3.org/2000/svg" xmlns:xlink="http://www.w3.org/1999/xlink" x="0px" y="0px"
	 viewBox="0 0 2000 451" style="enable-background:new 0 0 2000 451;" xml:space="preserve">
<style type="text/css">
	.st0{fill:#2B2928;}
	.st1{fill:#0075BD;}
	.st2{fill:#FFFFFF;}
	.st3{fill:#FFB900;}
</style>
<g>
	<path class="st0" d="M930.3,11.5l-19.4,16.9v158.9l19.4,16.9v0.8h-71.7v-0.8l19.4-16.9V28.4l-19.4-16.9v-0.8h71.7V11.5z
		 M1062.1,7.9c22.6,0,44.8,4.1,66.7,12.2v44.2h-0.8c-11.1-14.8-22-24.9-32.6-30.4c-10.7-5.5-21.7-8.2-33.2-8.2
		c-20.7,0-37.5,7.5-50.4,22.4c-12.9,14.9-19.3,34-19.3,57.4v5c0,23.3,6.4,42.4,19.3,57.4c12.9,14.9,29.7,22.4,50.4,22.4
		c11.5,0,22.5-2.7,33.2-8.2c10.6-5.5,21.5-15.6,32.6-30.4h0.8v44.2c-21.8,8.1-44.1,12.2-66.7,12.2c-29.1,0-54-9.1-74.8-27.2
		c-20.8-18.1-31.2-41.8-31.2-70.8v-3.9c0-29.1,10.4-52.7,31.2-70.8C1008.1,16.9,1033,7.9,1062.1,7.9z M1288.1,7.9
		c17,0,37.6,4.1,61.7,12.2v44.2h-0.8c-17.8-25.7-38-38.6-60.8-38.6c-11.9,0-20.6,2.8-26.1,8.3c-5.6,5.6-8.3,11.9-8.3,18.9v1.4
		c0,8.9,3.5,15.6,10.6,20c7,4.4,18.2,8.8,33.6,13.1c22.8,5.9,39.8,13.9,51,23.9c11.2,10,16.8,23.5,16.8,40.5v1.7
		c-0.2,15.2-6.6,28.1-19.3,38.6c-12.7,10.6-30.1,15.8-52.4,15.8c-18.7,0-43-6.6-72.8-19.7v-48.9h0.8c12.2,16.7,24,29.3,35.4,37.9
		c11.4,8.6,23.6,12.9,36.5,12.9c12.6,0,22.3-2.8,29.2-8.5c6.8-5.6,10.3-12.7,10.3-21.2v-1.4c0-10.9-4.5-19.3-13.5-25.3
		c-9-5.9-22.3-11.1-39.9-15.6c-38-10-56.9-28.8-56.9-56.4v-1.9c0.2-14.3,6.2-26.5,18.2-36.7C1253.2,12.9,1268.8,7.9,1288.1,7.9z
		 M1511.8,104.6h-0.6L1489.8,79h-29.5v109.6l15.1,15.9v0.6h-60.5v-0.6l15.3-15.9V79h-29.5l-21.6,25.7h-0.6V62.5h133.4V104.6z
		 M1565.2,68.9c12-5.6,25-8.5,39-8.5c14,0,27,2.8,39,8.5c12,5.6,21.8,14,29.4,25.2c7.6,11.1,11.4,23.9,11.4,38.3v2.9
		c0,14.4-3.8,27.2-11.4,38.3c-7.6,11.1-17.4,19.5-29.4,25.2c-12,5.6-25,8.5-39,8.5c-14,0-27-2.8-39-8.5c-12-5.6-21.8-14-29.4-25.2
		c-7.6-11.1-11.4-23.9-11.4-38.3v-2.9c0-14.4,3.8-27.2,11.4-38.3C1543.4,82.9,1553.2,74.5,1565.2,68.9z M1637.8,92.3
		c-8.6-10.3-19.8-15.4-33.6-15.4c-13.8,0-25.1,5.1-33.6,15.4c-8.6,10.3-12.8,23.5-12.8,39.6v3.7c0,16.2,4.3,29.4,12.8,39.6
		c8.6,10.3,19.8,15.4,33.6,15.4c13.9,0,25.1-5.1,33.6-15.4c8.6-10.3,12.8-23.5,12.8-39.6v-3.7
		C1650.7,115.8,1646.4,102.6,1637.8,92.3z M1782.2,60.4c17.8,0,33.8,2.7,48.1,8.1v37.1h-0.6c-16.4-19.1-32.3-28.7-47.5-28.7
		c-13.8,0-25.1,5.1-33.6,15.4c-8.6,10.3-12.8,23.5-12.8,39.6v3.7c0,16.2,4.3,29.4,12.8,39.6c8.6,10.3,19.8,15.4,33.6,15.4
		c15.2,0,31-9.6,47.5-28.7h0.6v37.1c-14.3,5.4-30.3,8.1-48.1,8.1c-14,0-27-2.8-39-8.5c-12-5.6-21.8-14-29.4-25.2
		c-7.6-11.1-11.4-23.9-11.4-38.3v-2.9c0-14.4,3.8-27.2,11.4-38.3c7.6-11.1,17.4-19.5,29.4-25.2C1755.2,63.2,1768.2,60.4,1782.2,60.4
		z M1984.2,63.1l-17.5,16l-38.4,40.1l55.9,69.5l14.9,15.8v0.6h-68.7v-0.6l15.1-15.9l-38-47.6l-12.1,12.6v35.2l15.1,15.8v0.6h-60.5
		v-0.6l15.3-15.9V79l-15.3-15.9v-0.6h60.5v0.6L1895.2,79v50.3l48.1-50.3l-15-15.9v-0.6h55.9V63.1z M1018.7,298.6h-0.8l-24.2-34.2
		h-47.5v158.9l19.4,16.9v0.8H894v-0.8l19.2-16.9V264.5h-47.2l-24.4,34.2h-0.8v-51.9h178V298.6z M1040.4,298.5h65.8
		c19.7,0,34.4,3.9,44.2,11.8c9.8,7.9,14.7,17.5,14.7,28.7v2c0,9-3.4,17.2-10.2,24.7c-6.8,7.5-16.8,12.3-29.9,14.2
		c10.7,3.9,20.9,13.5,30.6,28.7c6.2,9.6,11.8,16.9,16.6,21.9c4.8,5,10.1,8.9,16,11.9v0.6h-9.6c-14.5-0.1-26.3-2.9-35.4-8.4
		c-9.1-5.4-16.9-13.4-23.4-23.8c-7.5-11.7-13.2-19.6-17.3-23.6c-4.1-4.1-8.9-6.1-14.5-6.1h-2v43.4l15.1,15.9v0.6h-60.5v-0.6
		l15.3-15.9V315l-15.3-15.9V298.5z M1085.8,315v49.7h19.4c9.5,0,16.6-2.3,21.2-7c4.6-4.7,6.9-10.2,6.9-16.6v-2
		c0-6.1-2.4-11.6-7.2-16.6c-4.8-5-12.5-7.4-22.9-7.4H1085.8z M1282.4,298.5l55.6,126.1l15.3,15.9v0.6h-63.5v-0.6l15.3-15.9l-9.6-22
		h-53.1l-9.2,21.9l15.3,16v0.6h-48.5v-0.6l15.1-15.9l53-126.1H1282.4z M1249.3,386.1h38.9l-19.9-45.3L1249.3,386.1z M1370.3,298.5
		h68.2c14.1,0,27.3,2.7,39.4,8.1c12.2,5.4,22.1,13.6,29.9,24.4c7.8,10.9,11.7,23.3,11.7,37.3v2.9c0,14.1-3.9,26.6-11.7,37.5
		c-7.8,10.9-17.8,19-29.9,24.3c-12.2,5.4-25.3,8-39.4,8h-68.2v-0.6l15.3-15.9V315l-15.3-15.9V298.5z M1415.7,315v102.7
		c0,4.6,2.3,6.9,6.9,6.9h15.9c14,0,25.4-4.9,34.3-14.8c8.9-9.8,13.3-22.6,13.3-38.2V368c0-15.3-4.4-28-13.3-38
		c-8.9-10-20.3-15-34.3-15H1415.7z M1651.9,333h-0.6l-14.1-17.9H1581v44.6h39.5l13.9-16.1h0.6v48.7h-0.6l-13.9-16.1H1581v41.6
		c0,4.6,2.3,6.9,6.9,6.9h49.5l17.3-20h0.6v36.5h-119.8v-0.6l15.3-15.9V315l-15.3-15.9v-0.6h116.3V333z"/>
	<g>
		<path class="st1" d="M182.4,450.5c-4.5,0-8.9-0.7-12.9-2c-4.1,1.3-8.4,2-12.9,2H44.6C20.5,450.5,1,431,1,406.9V154.3
			c0-4.7,0.7-9.2,2.1-13.5c-1.4-4.2-2.1-8.8-2.1-13.5V44.1C1,20,20.5,0.5,44.6,0.5h111.9c16.5,0,30.9,9.2,38.3,22.7
			c4.4-2.2,8.9-4.2,13.7-6.2c39.9-16.1,78-16.6,82.2-16.6h392.1c16.6,0,31.8,9.5,39.1,24.4c7.3,15,5.4,32.8-4.8,45.9l-63.7,81.8
			c-2.7,3.5-5.9,6.5-9.4,8.9c23.5,7.1,47.4,19.1,66.6,39.4c22.8,24.2,33.6,58.9,32,103.1c-2.1,59.9-35.4,105.9-93.7,129.7
			c-40.8,16.6-81,16.8-82.7,16.8h0H182.4z"/>
		<g>
			<path class="st2" d="M182.4,406.9v-81.8h383.8c19.3,0,35-15.7,35-35c0-19.3-15.7-35-35-35l-44.1,0v-59.3l44.4,0l0.3,0
				c0,0,3.4-0.2,8.9-0.2c21,0,73.1,3.4,103.2,35.2c14.5,15.4,21.3,39.5,20.2,71.7c-1.5,42.9-23.9,73.5-66.5,90.9
				c-32.9,13.4-65.9,13.6-66.3,13.6h0H182.4z M156.5,406.9V233.6c-15.9-19.1-23.9-45.7-23.8-79.2H44.6v252.6H156.5z M497.1,299.5
				V125.8h121.8l63.7-81.8H290.6c-0.3,0-33,0.2-65.9,13.4c-42.9,17.3-65.4,47.9-66.9,91c-1.1,32.2,5.6,56.3,20.2,71.7
				c30,31.8,82.1,35.2,103.2,35.2c0,0,0,0,0,0c5.5,0,8.9-0.2,8.9-0.2l0.3,0l80.2,0v-59.3l-79.9,0c-19.3,0-35-15.7-35-35
				c0-19.3,15.7-35,35-35h104.8v173.7H497.1z"/>
			<path class="st3" d="M44.6,127.3V44.1h111.9v33.5c-10.9,14.4-18.1,31.1-21.5,49.8H44.6z"/>
		</g>
	</g>
</g>
</svg>
